<svg xmlns="http://www.w3.org/2000/svg" viewBox="0 0 1200 285" width="1200" height="285" role="img" aria-label="GitHub activity: 5072 contributions since 2015, 105 repositories.">
<rect width="1200" height="285" rx="14" fill="#f3f2ee"/>
<text x="48" y="52" font-family="ui-monospace, SFMono-Regular, Menlo, Consolas, monospace" font-size="11" letter-spacing="1.6" fill="#7f828a">GITHUB · ALL REPOSITORIES, PRIVATE INCLUDED</text>
<text x="46" y="108" font-family="Georgia, 'Times New Roman', serif" font-size="50" letter-spacing="-1" fill="#16171b">5,072</text>
<text x="48" y="132" font-family="Georgia, 'Times New Roman', serif" font-style="italic" font-size="17" fill="#4a4d55">contributions since 2015</text>
<text x="300" y="78" font-family="Georgia, 'Times New Roman', serif" font-size="24" fill="#16171b">1,337</text>
<text x="300" y="95" font-family="ui-monospace, SFMono-Regular, Menlo, Consolas, monospace" font-size="10.5" fill="#7f828a">in 2026</text>
<text x="412" y="78" font-family="Georgia, 'Times New Roman', serif" font-size="24" fill="#16171b">105</text>
<text x="412" y="95" font-family="ui-monospace, SFMono-Regular, Menlo, Consolas, monospace" font-size="10.5" fill="#7f828a">repositories</text>
<text x="524" y="78" font-family="Georgia, 'Times New Roman', serif" font-size="24" fill="#16171b">20</text>
<text x="524" y="95" font-family="ui-monospace, SFMono-Regular, Menlo, Consolas, monospace" font-size="10.5" fill="#7f828a">stars</text>
<text x="300" y="130" font-family="Georgia, 'Times New Roman', serif" font-size="24" fill="#16171b">7</text>
<text x="300" y="147" font-family="ui-monospace, SFMono-Regular, Menlo, Consolas, monospace" font-size="10.5" fill="#7f828a">pull requests</text>
<text x="412" y="130" font-family="Georgia, 'Times New Roman', serif" font-size="24" fill="#16171b">75</text>
<text x="412" y="147" font-family="ui-monospace, SFMono-Regular, Menlo, Consolas, monospace" font-size="10.5" fill="#7f828a">issues</text>
<text x="524" y="130" font-family="Georgia, 'Times New Roman', serif" font-size="24" fill="#16171b">4</text>
<text x="524" y="147" font-family="ui-monospace, SFMono-Regular, Menlo, Consolas, monospace" font-size="10.5" fill="#7f828a">contributed to</text>
<text x="700" y="52" font-family="ui-monospace, SFMono-Regular, Menlo, Consolas, monospace" font-size="11" letter-spacing="1.6" fill="#7f828a">LANGUAGES · BYTES OF CODE</text>
<rect x="700.0" y="70" width="320.6" height="10" fill="#5b3fd1" fill-opacity="1"/>
<rect x="1020.6" y="70" width="71.5" height="10" fill="#1d8a59" fill-opacity="1"/>
<rect x="1092.1" y="70" width="23.8" height="10" fill="#5b3fd1" fill-opacity="0.55"/>
<rect x="1115.9" y="70" width="10.8" height="10" fill="#1d8a59" fill-opacity="0.55"/>
<rect x="1126.7" y="70" width="8.8" height="10" fill="#4a4d55" fill-opacity="0.8"/>
<rect x="1135.5" y="70" width="4.0" height="10" fill="#7f828a" fill-opacity="0.7"/>
<rect x="1139.5" y="70" width="12.5" height="10" fill="#7f828a" fill-opacity="0.35"/>
<circle cx="705" cy="104" r="4.5" fill="#5b3fd1" fill-opacity="1"/>
<text x="716" y="108" font-family="ui-monospace, SFMono-Regular, Menlo, Consolas, monospace" font-size="12" fill="#4a4d55">Python<tspan fill="#7f828a"> 70.9%</tspan></text>
<circle cx="935" cy="104" r="4.5" fill="#1d8a59" fill-opacity="1"/>
<text x="946" y="108" font-family="ui-monospace, SFMono-Regular, Menlo, Consolas, monospace" font-size="12" fill="#4a4d55">TeX<tspan fill="#7f828a"> 15.8%</tspan></text>
<circle cx="705" cy="126" r="4.5" fill="#5b3fd1" fill-opacity="0.55"/>
<text x="716" y="130" font-family="ui-monospace, SFMono-Regular, Menlo, Consolas, monospace" font-size="12" fill="#4a4d55">HTML<tspan fill="#7f828a"> 5.3%</tspan></text>
<circle cx="935" cy="126" r="4.5" fill="#1d8a59" fill-opacity="0.55"/>
<text x="946" y="130" font-family="ui-monospace, SFMono-Regular, Menlo, Consolas, monospace" font-size="12" fill="#4a4d55">MATLAB<tspan fill="#7f828a"> 2.4%</tspan></text>
<circle cx="705" cy="148" r="4.5" fill="#4a4d55" fill-opacity="0.8"/>
<text x="716" y="152" font-family="ui-monospace, SFMono-Regular, Menlo, Consolas, monospace" font-size="12" fill="#4a4d55">TypeScript<tspan fill="#7f828a"> 2.0%</tspan></text>
<circle cx="935" cy="148" r="4.5" fill="#7f828a" fill-opacity="0.7"/>
<text x="946" y="152" font-family="ui-monospace, SFMono-Regular, Menlo, Consolas, monospace" font-size="12" fill="#4a4d55">ASP.NET<tspan fill="#7f828a"> 0.9%</tspan></text>
<circle cx="705" cy="170" r="4.5" fill="#7f828a" fill-opacity="0.35"/>
<text x="716" y="174" font-family="ui-monospace, SFMono-Regular, Menlo, Consolas, monospace" font-size="12" fill="#4a4d55">Other<tspan fill="#7f828a"> 2.8%</tspan></text>
<text x="700" y="192" font-family="Georgia, 'Times New Roman', serif" font-style="italic" font-size="13" fill="#7f828a">Jupyter notebooks in 56 repositories, left out of the bar.</text>
<text x="48" y="203" font-family="ui-monospace, SFMono-Regular, Menlo, Consolas, monospace" font-size="11" letter-spacing="1.6" fill="#7f828a">CONTRIBUTIONS PER WEEK · LAST 12 MONTHS (1,418)</text>
<line x1="48" x2="1152" y1="263" y2="263" stroke="#dedcd5"/>
<rect x="49.0" y="253.5" width="18.8" height="9.5" fill="#5b3fd1" fill-opacity="0.85"/>
<rect x="90.7" y="261.5" width="18.8" height="1.5" fill="#5b3fd1" fill-opacity="0.85"/>
<rect x="111.5" y="260.8" width="18.8" height="2.2" fill="#5b3fd1" fill-opacity="0.85"/>
<rect x="132.3" y="261.5" width="18.8" height="1.5" fill="#5b3fd1" fill-opacity="0.85"/>
<rect x="153.2" y="261.5" width="18.8" height="1.5" fill="#5b3fd1" fill-opacity="0.85"/>
<rect x="174.0" y="258.6" width="18.8" height="4.4" fill="#5b3fd1" fill-opacity="0.85"/>
<rect x="194.8" y="261.5" width="18.8" height="1.5" fill="#5b3fd1" fill-opacity="0.85"/>
<rect x="361.5" y="257.9" width="18.8" height="5.1" fill="#5b3fd1" fill-opacity="0.85"/>
<rect x="382.3" y="261.5" width="18.8" height="1.5" fill="#5b3fd1" fill-opacity="0.85"/>
<rect x="403.1" y="258.1" width="18.8" height="4.9" fill="#5b3fd1" fill-opacity="0.85"/>
<rect x="423.9" y="257.9" width="18.8" height="5.1" fill="#5b3fd1" fill-opacity="0.85"/>
<rect x="444.8" y="261.5" width="18.8" height="1.5" fill="#5b3fd1" fill-opacity="0.85"/>
<rect x="465.6" y="261.5" width="18.8" height="1.5" fill="#5b3fd1" fill-opacity="0.85"/>
<rect x="486.4" y="261.5" width="18.8" height="1.5" fill="#5b3fd1" fill-opacity="0.85"/>
<rect x="507.3" y="261.5" width="18.8" height="1.5" fill="#5b3fd1" fill-opacity="0.85"/>
<rect x="528.1" y="261.5" width="18.8" height="1.5" fill="#5b3fd1" fill-opacity="0.85"/>
<rect x="548.9" y="261.5" width="18.8" height="1.5" fill="#5b3fd1" fill-opacity="0.85"/>
<rect x="632.2" y="261.3" width="18.8" height="1.7" fill="#5b3fd1" fill-opacity="0.85"/>
<rect x="653.1" y="261.5" width="18.8" height="1.5" fill="#5b3fd1" fill-opacity="0.85"/>
<rect x="673.9" y="261.5" width="18.8" height="1.5" fill="#5b3fd1" fill-opacity="0.85"/>
<rect x="715.6" y="253.8" width="18.8" height="9.2" fill="#5b3fd1" fill-opacity="0.85"/>
<rect x="736.4" y="243.0" width="18.8" height="20.0" fill="#5b3fd1" fill-opacity="0.85"/>
<rect x="757.2" y="252.5" width="18.8" height="10.5" fill="#5b3fd1" fill-opacity="0.85"/>
<rect x="778.1" y="252.3" width="18.8" height="10.7" fill="#5b3fd1" fill-opacity="0.85"/>
<rect x="798.9" y="256.7" width="18.8" height="6.3" fill="#5b3fd1" fill-opacity="0.85"/>
<rect x="819.7" y="261.5" width="18.8" height="1.5" fill="#5b3fd1" fill-opacity="0.85"/>
<rect x="861.4" y="261.5" width="18.8" height="1.5" fill="#5b3fd1" fill-opacity="0.85"/>
<rect x="965.5" y="261.5" width="18.8" height="1.5" fill="#5b3fd1" fill-opacity="0.85"/>
<rect x="986.4" y="246.2" width="18.8" height="16.8" fill="#5b3fd1" fill-opacity="0.85"/>
<rect x="1007.2" y="258.1" width="18.8" height="4.9" fill="#5b3fd1" fill-opacity="0.85"/>
<rect x="1028.0" y="246.4" width="18.8" height="16.6" fill="#5b3fd1" fill-opacity="0.85"/>
<rect x="1048.8" y="217.0" width="18.8" height="46.0" fill="#5b3fd1" fill-opacity="0.85"/>
<rect x="1069.7" y="228.2" width="18.8" height="34.8" fill="#5b3fd1" fill-opacity="0.85"/>
<rect x="1090.5" y="218.9" width="18.8" height="44.1" fill="#5b3fd1" fill-opacity="0.85"/>
<rect x="1111.3" y="220.9" width="18.8" height="42.1" fill="#5b3fd1" fill-opacity="0.85"/>
<rect x="1132.2" y="224.8" width="18.8" height="38.2" fill="#5b3fd1" fill-opacity="0.85"/>
</svg>